<svg xmlns="http://www.w3.org/2000/svg" width="16" height="16" fill="#FFFFFF" viewBox="0 0 16 16">
  <!-- Globe for diplomacy — all white, no hardcoded fill overrides -->
  <!-- Outer ring -->
  <path fill-rule="evenodd" d="M8 1a7 7 0 100 14A7 7 0 008 1zm0 1.2a5.8 5.8 0 110 11.6A5.8 5.8 0 018 2.2z"/>
  <!-- Equator band -->
  <rect x="1" y="7.3" width="14" height="1.4"/>
  <!-- Meridian oval (vertical) -->
  <path fill-rule="evenodd" d="M8 2.2c-1.6 0-2.7 2.6-2.7 5.8s1.1 5.8 2.7 5.8 2.7-2.6 2.7-5.8-1.1-5.8-2.7-5.8zm0 1.1c.9 0 1.6 2.1 1.6 4.7s-.7 4.7-1.6 4.7-1.6-2.1-1.6-4.7.7-4.7 1.6-4.7z"/>
</svg>
