<svg xmlns="http://www.w3.org/2000/svg" width="16" height="16" fill="#FFFFFF" viewBox="0 0 16 16">
  <!-- Balance scales / trade -->
  <!-- Central pole -->
  <rect x="7.5" y="3" width="1" height="10" rx="0.5"/>
  <!-- Base triangle -->
  <polygon points="5.5,13 10.5,13 8,15.5"/>
  <!-- Horizontal balance arm -->
  <rect x="2.5" y="4" width="11" height="1.2" rx="0.6"/>
  <!-- Left chain -->
  <rect x="3.5" y="5.2" width="0.9" height="2.5" rx="0.4"/>
  <!-- Right chain -->
  <rect x="11.6" y="5.2" width="0.9" height="2.5" rx="0.4"/>
  <!-- Left pan (thin arc/crescent via evenodd) -->
  <path fill-rule="evenodd" d="M1 8.5a3.4 1.8 0 006.8 0 3.4 1.8 0 00-6.8 0zm1 0a2.4 1.1 0 004.8 0 2.4 1.1 0 00-4.8 0z"/>
  <!-- Right pan -->
  <path fill-rule="evenodd" d="M8.2 8.5a3.4 1.8 0 006.8 0 3.4 1.8 0 00-6.8 0zm1 0a2.4 1.1 0 004.8 0 2.4 1.1 0 00-4.8 0z"/>
</svg>
